<svg xmlns="http://www.w3.org/2000/svg" xmlns:xlink="http://www.w3.org/1999/xlink" width="302" zoomAndPan="magnify" viewBox="0 0 226.5 226.499992" height="302" preserveAspectRatio="xMidYMid meet" version="1.0"><defs><clipPath id="26ba7a3df5"><path d="M 7.964844 7.964844 L 218.714844 7.964844 L 218.714844 218.714844 L 7.964844 218.714844 Z M 7.964844 7.964844 " clip-rule="nonzero"/></clipPath><clipPath id="2d0964bd8c"><path d="M 115.152344 103.035156 L 137.160156 103.035156 L 137.160156 208.648438 L 115.152344 208.648438 Z M 115.152344 103.035156 " clip-rule="nonzero"/></clipPath><clipPath id="fcd344bade"><path d="M 114 77.261719 L 181.605469 77.261719 L 181.605469 138.808594 L 114 138.808594 Z M 114 77.261719 " clip-rule="nonzero"/></clipPath></defs><g clip-path="url(#26ba7a3df5)"><path fill="#fffffe" d="M 60.152344 7.964844 L 166.523438 7.964844 C 168.230469 7.964844 169.9375 8.046875 171.636719 8.214844 C 173.339844 8.382812 175.027344 8.632812 176.703125 8.964844 C 178.378906 9.300781 180.035156 9.714844 181.671875 10.210938 C 183.308594 10.707031 184.914062 11.28125 186.496094 11.9375 C 188.074219 12.589844 189.617188 13.320312 191.125 14.125 C 192.632812 14.929688 194.097656 15.808594 195.519531 16.757812 C 196.9375 17.707031 198.308594 18.726562 199.632812 19.808594 C 200.953125 20.894531 202.21875 22.039062 203.425781 23.25 C 204.636719 24.457031 205.78125 25.722656 206.867188 27.042969 C 207.949219 28.367188 208.96875 29.738281 209.917969 31.160156 C 210.867188 32.578125 211.746094 34.042969 212.550781 35.550781 C 213.355469 37.058594 214.085938 38.601562 214.742188 40.179688 C 215.394531 41.761719 215.96875 43.367188 216.464844 45.003906 C 216.960938 46.640625 217.375 48.296875 217.710938 49.972656 C 218.042969 51.648438 218.292969 53.335938 218.460938 55.039062 C 218.628906 56.738281 218.714844 58.445312 218.714844 60.152344 L 218.714844 166.523438 C 218.714844 168.230469 218.628906 169.9375 218.460938 171.636719 C 218.292969 173.339844 218.042969 175.027344 217.710938 176.703125 C 217.375 178.378906 216.960938 180.035156 216.464844 181.671875 C 215.96875 183.308594 215.394531 184.914062 214.742188 186.496094 C 214.085938 188.074219 213.355469 189.617188 212.550781 191.125 C 211.746094 192.632812 210.867188 194.097656 209.917969 195.519531 C 208.96875 196.9375 207.949219 198.308594 206.867188 199.632812 C 205.78125 200.953125 204.636719 202.21875 203.425781 203.425781 C 202.21875 204.636719 200.953125 205.78125 199.632812 206.867188 C 198.308594 207.949219 196.9375 208.96875 195.519531 209.917969 C 194.097656 210.867188 192.632812 211.746094 191.125 212.550781 C 189.617188 213.355469 188.074219 214.085938 186.496094 214.742188 C 184.914062 215.394531 183.308594 215.96875 181.671875 216.464844 C 180.035156 216.960938 178.378906 217.375 176.703125 217.710938 C 175.027344 218.042969 173.339844 218.292969 171.636719 218.460938 C 169.9375 218.628906 168.230469 218.714844 166.523438 218.714844 L 60.152344 218.714844 C 58.445312 218.714844 56.738281 218.628906 55.039062 218.460938 C 53.335938 218.292969 51.648438 218.042969 49.972656 217.710938 C 48.296875 217.375 46.640625 216.960938 45.003906 216.464844 C 43.367188 215.96875 41.761719 215.394531 40.179688 214.742188 C 38.601562 214.085938 37.058594 213.355469 35.550781 212.550781 C 34.042969 211.746094 32.578125 210.867188 31.160156 209.917969 C 29.738281 208.96875 28.367188 207.949219 27.042969 206.867188 C 25.722656 205.78125 24.457031 204.636719 23.25 203.425781 C 22.039062 202.21875 20.894531 200.953125 19.808594 199.632812 C 18.726562 198.308594 17.707031 196.9375 16.757812 195.519531 C 15.808594 194.097656 14.929688 192.632812 14.125 191.125 C 13.320312 189.617188 12.589844 188.074219 11.9375 186.496094 C 11.28125 184.914062 10.707031 183.308594 10.210938 181.671875 C 9.714844 180.035156 9.300781 178.378906 8.964844 176.703125 C 8.632812 175.027344 8.382812 173.339844 8.214844 171.636719 C 8.046875 169.9375 7.964844 168.230469 7.964844 166.523438 L 7.964844 60.152344 C 7.964844 58.445312 8.046875 56.738281 8.214844 55.039062 C 8.382812 53.335938 8.632812 51.648438 8.964844 49.972656 C 9.300781 48.296875 9.714844 46.640625 10.210938 45.003906 C 10.707031 43.367188 11.28125 41.761719 11.9375 40.179688 C 12.589844 38.601562 13.320312 37.058594 14.125 35.550781 C 14.929688 34.042969 15.808594 32.578125 16.757812 31.160156 C 17.707031 29.738281 18.726562 28.367188 19.808594 27.042969 C 20.894531 25.722656 22.039062 24.457031 23.25 23.25 C 24.457031 22.039062 25.722656 20.894531 27.042969 19.808594 C 28.367188 18.726562 29.738281 17.707031 31.160156 16.757812 C 32.578125 15.808594 34.042969 14.929688 35.550781 14.125 C 37.058594 13.320312 38.601562 12.589844 40.179688 11.9375 C 41.761719 11.28125 43.367188 10.707031 45.003906 10.210938 C 46.640625 9.714844 48.296875 9.300781 49.972656 8.964844 C 51.648438 8.632812 53.335938 8.382812 55.039062 8.214844 C 56.738281 8.046875 58.445312 7.964844 60.152344 7.964844 Z M 60.152344 7.964844 " fill-opacity="1" fill-rule="nonzero"/></g><g clip-path="url(#2d0964bd8c)"><path fill="#1e1a12" d="M 115.417969 104.757812 C 119.449219 110.617188 122.679688 117.125 125.515625 123.625 C 131.449219 137.21875 134.097656 151.425781 133.621094 166.335938 C 133.144531 181.289062 127.355469 195.332031 117.230469 206.355469 C 116.265625 207.40625 119.144531 209.398438 120.101562 208.355469 C 131.984375 195.414062 137.566406 178.839844 137.019531 161.410156 C 136.570312 147.035156 132.246094 132.875 126.246094 119.882812 C 123.652344 114.261719 120.757812 108.628906 117.238281 103.515625 C 116.429688 102.339844 114.613281 103.589844 115.417969 104.757812 " fill-opacity="1" fill-rule="nonzero"/></g><path fill="#1e1a12" d="M 164.207031 50.714844 C 164.5 41.117188 156.96875 33.566406 147.652344 33.140625 C 145.242188 33.03125 142.847656 33.484375 140.582031 34.34375 C 137.609375 25.765625 128.550781 20.414062 119.539062 22.839844 C 111.335938 25.050781 105.007812 34.574219 103.804688 42.75 C 101.914062 55.589844 103.96875 68.90625 109.34375 80.472656 C 110.671875 83.332031 112.242188 86.058594 113.972656 88.675781 C 114.03125 88.863281 114.148438 89.035156 114.335938 89.164062 C 114.425781 89.238281 114.53125 89.292969 114.652344 89.328125 C 114.882812 89.410156 115.109375 89.402344 115.316406 89.335938 C 130.40625 87.75 145.476562 80.679688 156.125 69.355469 C 160.894531 64.285156 163.992188 57.75 164.207031 50.714844 " fill-opacity="1" fill-rule="nonzero"/><path fill="#1e1a12" d="M 116.375 151.5625 C 109.117188 157.882812 98.480469 156.882812 92.238281 149.980469 C 90.621094 148.195312 89.453125 146.066406 88.683594 143.773438 C 80.140625 146.929688 70.242188 143.355469 66.402344 134.882812 C 62.90625 127.164062 66.273438 116.242188 71.851562 110.125 C 80.605469 100.519531 92.234375 93.644531 104.617188 90.441406 C 107.675781 89.648438 110.789062 89.121094 113.914062 88.792969 C 114.101562 88.722656 114.304688 88.703125 114.527344 88.765625 C 114.640625 88.789062 114.75 88.835938 114.855469 88.90625 C 115.0625 89.03125 115.203125 89.207031 115.277344 89.410156 C 123.632812 102.03125 127.714844 118.121094 125.699219 133.507812 C 124.796875 140.398438 121.695312 146.933594 116.375 151.5625 " fill-opacity="1" fill-rule="nonzero"/><g clip-path="url(#fcd344bade)"><path fill="#1e1a12" d="M 153.039062 138.480469 C 162.671875 138.769531 170.253906 131.265625 170.679688 121.984375 C 170.789062 119.585938 170.332031 117.199219 169.46875 114.941406 C 178.078125 111.980469 183.449219 102.953125 181.015625 93.976562 C 178.796875 85.800781 169.238281 79.496094 161.03125 78.296875 C 148.148438 76.417969 134.78125 78.460938 123.175781 83.816406 C 120.304688 85.140625 117.566406 86.703125 114.9375 88.429688 C 114.75 88.488281 114.582031 88.605469 114.449219 88.792969 C 114.375 88.882812 114.320312 88.988281 114.285156 89.109375 C 114.203125 89.335938 114.207031 89.5625 114.277344 89.765625 C 115.867188 104.804688 122.964844 119.816406 134.332031 130.429688 C 139.417969 135.179688 145.980469 138.269531 153.039062 138.480469 " fill-opacity="1" fill-rule="nonzero"/></g><path fill="#1e1a12" d="M 51.820312 90.824219 C 45.476562 83.59375 46.484375 72.996094 53.410156 66.773438 C 55.203125 65.164062 57.339844 64 59.640625 63.230469 C 56.46875 54.722656 60.054688 44.859375 68.5625 41.035156 C 76.3125 37.550781 87.269531 40.90625 93.410156 46.460938 C 103.050781 55.183594 109.953125 66.769531 113.167969 79.105469 C 113.964844 82.15625 114.492188 85.257812 114.820312 88.375 C 114.894531 88.554688 114.910156 88.761719 114.847656 88.980469 C 114.824219 89.09375 114.78125 89.203125 114.707031 89.308594 C 114.582031 89.515625 114.40625 89.65625 114.203125 89.730469 C 101.535156 98.054688 85.386719 102.125 69.941406 100.113281 C 63.027344 99.214844 56.46875 96.125 51.820312 90.824219 " fill-opacity="1" fill-rule="nonzero"/><path fill="#27864f" d="M 117.648438 84.175781 C 117.554688 84.175781 117.457031 84.15625 117.363281 84.125 C 117.257812 84.09375 117.171875 84.046875 117.09375 83.988281 C 116.933594 83.875 116.835938 83.730469 116.785156 83.574219 C 115.320312 81.359375 113.992188 79.050781 112.867188 76.632812 C 108.324219 66.851562 106.585938 55.589844 108.183594 44.730469 C 109.203125 37.816406 114.554688 29.761719 121.492188 27.894531 C 122.742188 27.554688 123.992188 27.398438 125.21875 27.398438 C 131.484375 27.398438 137.1875 31.554688 139.289062 37.625 C 141.015625 36.96875 142.832031 36.589844 144.664062 36.589844 C 144.867188 36.589844 145.066406 36.59375 145.269531 36.605469 C 153.148438 36.964844 159.515625 43.351562 159.269531 51.464844 C 159.089844 57.417969 156.46875 62.945312 152.4375 67.234375 C 147.324219 72.667969 141.007812 76.945312 134.171875 79.871094 C 131.226562 80.648438 128.34375 81.617188 125.550781 82.777344 C 123.027344 83.40625 120.472656 83.863281 117.917969 84.128906 C 117.832031 84.160156 117.742188 84.175781 117.648438 84.175781 " fill-opacity="1" fill-rule="nonzero"/><path fill="#27864f" d="M 125.550781 82.777344 C 128.34375 81.617188 131.226562 80.648438 134.171875 79.871094 C 131.371094 81.070312 128.480469 82.042969 125.550781 82.777344 " fill-opacity="1" fill-rule="nonzero"/><path fill="#27864f" d="M 104.53125 150.578125 C 98.261719 150.578125 92.5625 146.417969 90.460938 140.351562 C 88.730469 141.007812 86.917969 141.382812 85.082031 141.382812 C 84.882812 141.382812 84.679688 141.378906 84.476562 141.371094 C 76.601562 141.011719 70.230469 134.621094 70.476562 126.507812 C 70.660156 120.558594 73.28125 115.027344 77.3125 110.742188 C 82.332031 105.402344 88.515625 101.183594 95.214844 98.257812 C 98.109375 97.46875 100.949219 96.484375 103.699219 95.324219 C 106.382812 94.628906 109.105469 94.128906 111.828125 93.84375 C 111.914062 93.816406 112.003906 93.800781 112.097656 93.800781 C 112.191406 93.800781 112.289062 93.816406 112.386719 93.851562 C 112.488281 93.878906 112.578125 93.925781 112.65625 93.988281 C 112.8125 94.097656 112.914062 94.242188 112.960938 94.402344 C 114.136719 96.175781 115.222656 98.011719 116.1875 99.914062 C 117.238281 103.789062 118.648438 107.597656 120.394531 111.253906 C 122.199219 118.382812 122.644531 125.90625 121.5625 133.242188 C 120.546875 140.15625 115.191406 148.210938 108.253906 150.082031 C 107.007812 150.417969 105.757812 150.578125 104.53125 150.578125 " fill-opacity="1" fill-rule="nonzero"/><path fill="#27864f" d="M 120.394531 111.253906 C 118.648438 107.597656 117.238281 103.789062 116.1875 99.914062 C 116.425781 100.386719 116.65625 100.859375 116.878906 101.339844 C 118.351562 104.511719 119.53125 107.839844 120.394531 111.253906 " fill-opacity="1" fill-rule="nonzero"/><path fill="#27864f" d="M 95.214844 98.257812 C 97.972656 97.058594 100.8125 96.074219 103.699219 95.324219 C 100.949219 96.484375 98.109375 97.46875 95.214844 98.257812 " fill-opacity="1" fill-rule="nonzero"/><path fill="#27864f" d="M 152.988281 133.226562 C 152.835938 133.226562 152.683594 133.226562 152.53125 133.222656 C 146.558594 133.042969 141.011719 130.429688 136.707031 126.414062 C 127.097656 117.4375 121.09375 104.738281 119.75 92.023438 C 119.691406 91.847656 119.6875 91.660156 119.757812 91.464844 C 119.785156 91.363281 119.832031 91.273438 119.890625 91.199219 C 120.003906 91.039062 120.148438 90.941406 120.308594 90.890625 C 122.53125 89.433594 124.84375 88.109375 127.269531 86.988281 C 134.691406 83.566406 142.957031 81.742188 151.257812 81.742188 C 153.941406 81.742188 156.628906 81.933594 159.289062 82.320312 C 166.234375 83.335938 174.316406 88.667969 176.191406 95.582031 C 178.25 103.175781 173.710938 110.808594 166.425781 113.3125 C 167.160156 115.222656 167.542969 117.238281 167.449219 119.273438 C 167.09375 126.972656 160.917969 133.226562 152.988281 133.226562 " fill-opacity="1" fill-rule="nonzero"/><path fill="#27864f" d="M 78.488281 96.230469 C 75.804688 96.230469 73.117188 96.042969 70.457031 95.652344 C 63.515625 94.640625 55.429688 89.304688 53.554688 82.390625 C 51.496094 74.800781 56.039062 67.167969 63.320312 64.660156 C 62.589844 62.75 62.207031 60.734375 62.300781 58.703125 C 62.652344 51 68.832031 44.746094 76.761719 44.746094 C 76.914062 44.746094 77.066406 44.75 77.21875 44.753906 C 83.1875 44.933594 88.738281 47.542969 93.039062 51.5625 C 102.652344 60.539062 108.65625 73.234375 109.996094 85.953125 C 110.058594 86.125 110.0625 86.316406 109.992188 86.507812 C 109.964844 86.613281 109.917969 86.699219 109.855469 86.777344 C 109.742188 86.933594 109.597656 87.035156 109.441406 87.082031 C 107.21875 88.542969 104.902344 89.867188 102.476562 90.984375 C 95.054688 94.40625 86.789062 96.230469 78.488281 96.230469 " fill-opacity="1" fill-rule="nonzero"/></svg>